Coordinates
version=1
nRows=12
nColumns=46
inDegrees=yes

Units are S.I. units (second, meters, Newtons, ...)
Angles are in degrees.

endheader
time	pelvis_tilt	pelvis_list	pelvis_rotation	pelvis_tx	pelvis_ty	pelvis_tz	bb_angle	bb_tx	bb_ty	bb_tz	hip_flexion_r	hip_adduction_r	hip_rotation_r	knee_angle_r	knee_angle_r_beta	ankle_angle_r	subtalar_angle_r	mtp_angle_r	crank_angle_r	hip_flexion_l	hip_adduction_l	hip_rotation_l	knee_angle_l	knee_angle_l_beta	ankle_angle_l	subtalar_angle_l	mtp_angle_l	crank_angle_l	lumbar_extension	lumbar_bending	lumbar_rotation	arm_flex_r	arm_add_r	arm_rot_r	elbow_flex_r	pro_sup_r	wrist_flex_r	wrist_dev_r	arm_flex_l	arm_add_l	arm_rot_l	elbow_flex_l	pro_sup_l	wrist_flex_l	wrist_dev_l
      2.50000000	    -13.33108743	     -9.33545604	     -4.61696888	      0.19075084	      1.04709296	     -0.25782275	      0.00000000	      0.50000000	      0.00000000	      0.25000000	     79.11022155	      6.01196128	      2.52138333	     98.71612035	      1.72292132	     26.85893515	     -2.19231628	      0.00000000	      0.00000000	     43.63916737	    -15.30182850	      0.88082569	     60.30891167	      1.05258908	    -12.83724490	    -11.46093405	      0.00000000	      0.00000000	    -66.63580819	      8.24654555	      9.43968386	     89.41320053	    -11.25869660	     28.49674350	     61.11601424	     39.79053642	      0.00000000	      0.00000000	     82.82983734	    -25.64732569	     27.19285410	     63.47580122	     41.77961146	      0.00000000	      0.00000000
      2.50500000	    -12.91039671	     -8.95699769	     -4.30769482	      0.19047956	      1.04692460	     -0.25712863	      0.00000000	      0.50000000	      0.00000000	      0.25000000	     77.78482856	      5.78110330	      2.72165799	     96.62747885	      1.68646765	     27.59294794	     -2.69960912	      0.00000000	      0.00000000	     43.79456190	    -14.79363114	      1.16583383	     62.44799918	      1.08992320	    -12.23921006	    -11.97622063	      0.00000000	      0.00000000	    -66.98358841	      7.93867800	      8.80427502	     89.39590074	    -11.26067449	     28.43365984	     61.17740412	     39.76510699	      0.00000000	      0.00000000	     82.98287815	    -25.65277935	     26.94661769	     63.64986814	     41.81029280	      0.00000000	      0.00000000
      2.51000000	    -12.37443849	     -8.76963584	     -3.96350578	      0.19018158	      1.04717024	     -0.25617568	      0.00000000	      0.50000000	      0.00000000	      0.25000000	     76.26996295	      5.56942141	      2.59637230	     94.30736064	      1.64597395	     27.82565214	     -3.62704699	      0.00000000	      0.00000000	     43.85344631	    -14.48360370	      1.65020163	     64.57549048	      1.12705492	    -11.22863305	    -11.72019300	      0.00000000	      0.00000000	    -67.73811608	      7.71367142	      8.00550198	     89.36514680	    -10.76769739	     27.84236278	     61.69400895	     39.59694782	      0.00000000	      0.00000000	     82.77666395	    -26.19911301	     25.65765817	     65.15548274	     42.12892326	      0.00000000	      0.00000000
      2.51500000	    -11.94770516	     -8.32626628	     -3.55839229	      0.18966411	      1.04709856	     -0.25544622	      0.00000000	      0.50000000	      0.00000000	      0.25000000	     74.90470587	      5.14711639	      2.69548434	     92.07871573	      1.60707676	     28.11214217	     -4.15466838	      0.00000000	      0.00000000	     44.04659247	    -13.85103918	      2.02288599	     66.68397375	      1.16385490	    -10.47897175	    -12.07911866	      0.00000000	      0.00000000	    -68.09570349	      7.32498653	      7.19090015	     89.34207189	    -10.82537269	     27.70090606	     61.68395492	     39.55689421	      0.00000000	      0.00000000	     83.14311297	    -26.16258427	     25.41615206	     65.42572557	     42.17591475	      0.00000000	      0.00000000
      2.52000000	    -11.39822318	     -7.95450252	     -3.12637716	      0.18934430	      1.04728322	     -0.25444635	      0.00000000	      0.50000000	      0.00000000	      0.25000000	     73.35102747	      4.81630721	      2.87757134	     89.87639113	      1.56863895	     28.16062455	     -4.58676403	      0.00000000	      0.00000000	     44.12039961	    -13.37244478	      2.42442559	     68.80101987	      1.20080433	     -9.27856874	    -11.36909067	      0.00000000	      0.00000000	    -68.73423128	      7.04263102	      6.28735030	     89.30727412	    -10.32560956	     27.01104832	     61.91844775	     39.42276996	      0.00000000	      0.00000000	     83.29728499	    -26.53010005	     24.77369267	     66.32153054	     42.39235369	      0.00000000	      0.00000000
      2.52500000	    -11.05158267	     -7.43361853	     -2.64827673	      0.18889454	      1.04720847	     -0.25354264	      0.00000000	      0.50000000	      0.00000000	      0.25000000	     72.07852052	      4.26605156	      3.02743334	     87.67972768	      1.53029994	     28.13169581	     -4.79503132	      0.00000000	      0.00000000	     44.42357279	    -12.66618405	      2.79712641	     70.86662744	      1.23685598	     -8.44642625	    -11.43813657	      0.00000000	      0.00000000	    -69.03906890	      6.68664581	      5.42003939	     89.27728399	    -10.30565811	     26.80810334	     61.89770089	     39.38088059	      0.00000000	      0.00000000	     83.70690080	    -26.41991554	     24.53526922	     66.61663401	     42.44622971	      0.00000000	      0.00000000
      2.53000000	    -10.70100615	     -6.86488915	     -2.20137889	      0.18847939	      1.04722074	     -0.25255833	      0.00000000	      0.50000000	      0.00000000	      0.25000000	     70.81788012	      3.70182719	      3.23942894	     85.57564525	      1.49357677	     27.83564811	     -4.79830813	      0.00000000	      0.00000000	     44.72180350	    -11.97585109	      3.05287856	     72.93969282	      1.27303780	     -7.45509649	    -11.33785638	      0.00000000	      0.00000000	    -69.33865903	      6.29638840	      4.50576170	     89.22095189	    -10.30120333	     26.59038385	     61.92551288	     39.35540228	      0.00000000	      0.00000000	     84.12236629	    -26.32798870	     24.33166398	     66.85774211	     42.48680891	      0.00000000	      0.00000000
      2.53500000	    -10.31062928	     -6.34872480	     -1.75007758	      0.18794000	      1.04738810	     -0.25120636	      0.00000000	      0.50000000	      0.00000000	      0.25000000	     69.53787320	      3.17023853	      3.37727585	     83.56499835	      1.45848436	     27.29110500	     -4.98923953	      0.00000000	      0.00000000	     45.00408940	    -11.35056594	      3.48011177	     75.00573902	      1.30909710	     -6.12404919	    -10.23851116	      0.00000000	      0.00000000	    -69.73447546	      5.92957028	      3.57614352	     89.18356937	    -10.00201528	     26.08499181	     62.09035165	     39.31354039	      0.00000000	      0.00000000	     84.51667526	    -26.47567969	     24.03631649	     67.23666014	     42.58306362	      0.00000000	      0.00000000
      2.54000000	    -10.14441118	     -5.70269195	     -1.38509119	      0.18743749	      1.04740402	     -0.24999569	      0.00000000	      0.50000000	      0.00000000	      0.25000000	     68.49578594	      2.56655260	      3.61874189	     81.50506256	      1.42253170	     26.63891400	     -4.76452725	      0.00000000	      0.00000000	     45.51111688	    -10.63917666	      3.62758612	     77.02755150	      1.34438439	     -5.21403049	    -10.28329268	      0.00000000	      0.00000000	    -69.83862256	      5.44800581	      2.68852899	     89.12169001	    -10.05916355	     25.91732324	     62.06046418	     39.29111536	      0.00000000	      0.00000000	     84.91700719	    -26.31664359	     23.96322718	     67.39777394	     42.61567443	      0.00000000	      0.00000000
      2.54500000	     -9.97899076	     -5.00190954	     -0.93224332	      0.18687853	      1.04744512	     -0.24872821	      0.00000000	      0.50000000	      0.00000000	      0.25000000	     67.43771833	      1.83985758	      3.85955690	     79.44096741	      1.38650644	     25.86008083	     -4.70445596	      0.00000000	      0.00000000	     46.07156071	     -9.82648019	      3.87367454	     79.06408086	      1.37992853	     -4.05898980	     -9.57193722	      0.00000000	      0.00000000	    -69.98423517	      4.96171528	      1.67080801	     89.08945997	    -10.01877345	     25.60287045	     62.06089228	     39.26343516	      0.00000000	      0.00000000	     85.42282206	    -26.18705498	     23.90766880	     67.50580517	     42.65393054	      0.00000000	      0.00000000
      2.55000000	     -9.91678844	     -4.32123472	     -0.54743043	      0.18639414	      1.04753512	     -0.24745341	      0.00000000	      0.50000000	      0.00000000	      0.25000000	     66.43637707	      1.17408069	      4.09598175	     77.34262629	      1.34988348	     24.85513632	     -4.59784138	      0.00000000	      0.00000000	     46.73534440	     -9.04403391	      4.07163146	     81.05536186	      1.41468294	     -2.96629237	     -9.15013210	      0.00000000	      0.00000000	    -70.00712930	      4.50448523	      0.78429653	     89.02873788	    -10.03960342	     25.31995937	     61.99880456	     39.23460975	      0.00000000	      0.00000000	     85.91154046	    -26.00810872	     23.93344951	     67.53692136	     42.68312756	      0.00000000	      0.00000000
      2.55500000	     -9.90936833	     -3.64069514	     -0.23213027	      0.18610907	      1.04783894	     -0.24609200	      0.00000000	      0.50000000	      0.00000000	      0.25000000	     65.39945874	      0.57234916	      4.39943818	     75.19352202	      1.31237454	     23.89436547	     -4.28507442	      0.00000000	      0.00000000	     47.43581294	     -8.30469260	      4.17005790	     82.94177775	      1.44760711	     -2.30425704	     -9.18394333	      0.00000000	      0.00000000	    -69.96651709	      3.96861684	     -0.06631556	     88.95329403	    -10.16945630	     25.19481523	     61.96382353	     39.22253893	      0.00000000	      0.00000000	     86.14135972	    -25.77909619	     23.99112212	     67.56793489	     42.69793926	      0.00000000	      0.00000000
